/* XPM */
static char *dc50e6d00a0b430bb7e8f66124c55fdfBrz0HDQRVklqrEk0[] = {
/* columns rows colors chars-per-pixel */
"48 48 11 1 ",
"  c none",
". c #145E53",
"X c #11727A",
"o c #1C919A",
"O c #1AAAA7",
"+ c #20C5B5",
"@ c #2CE0D8",
"# c #4AEDD9",
"$ c #A1FBE8",
"% c #D5FFF6",
"& c #FFFFFE",
/* pixels */
"                                                ",
"                                                ",
"                                                ",
"                                                ",
"                                                ",
"                                                ",
"                  XXXXXXXXXXXX                  ",
"                  XXXXXXXXXXXX                  ",
"                  XXXXXXXXXXXX                  ",
"               XXX&&&&&&&&&%%%XXX               ",
"               XXX&&&&&&&&&%%%XXX               ",
"               XXX&&&&&&&&&%%%XXX               ",
"            XXX&&&######$$$%%%+++...            ",
"            XXX&&&######$$$%%%+++...            ",
"            XXX&&&######$$$%%%+++...            ",
"         XXX&&&###$$$$$$%%%$$$###+++...         ",
"         XXX&&&###$$$$$$%%%$$$###+++...         ",
"         XXX&&&###$$$$$$%%%$$$###+++...         ",
"         XXX&&&###&&&%%%&&&%%%######...         ",
"         XXX&&&###&&&%%%&&&%%%######...         ",
"         XXX&&&###&&&%%%&&&%%%######...         ",
"      XXX&&&###&&&######$$$$$$OOO+++OOO...      ",
"      XXX&&&###&&&######$$$$$$OOO+++OOO...      ",
"      XXX&&&###&&&######$$$$$$OOO+++OOO...      ",
"      XXX&&&###%%%###$$$$$$$$$ooo+++OOO...      ",
"      XXX&&&###%%%###$$$$$$$$$ooo+++OOO...      ",
"      XXX&&&###%%%###$$$$$$$$$ooo+++OOO...      ",
"      XXX&&&&&&+++$$$$$$$$$###oooOOOOOO...      ",
"      XXX&&&&&&+++$$$$$$$$$###oooOOOOOO...      ",
"      XXX&&&&&&+++$$$$$$$$$###oooOOOOOO...      ",
"      XXX%%%######OOOOOOOOOOOO++++++ooo...      ",
"      XXX%%%######OOOOOOOOOOOO++++++ooo...      ",
"      XXX%%%######OOOOOOOOOOOO++++++ooo...      ",
"         ...###OOO++++++++++++OOO+++...         ",
"         ...###OOO++++++++++++OOO+++...         ",
"         ...###OOO++++++++++++OOO+++...         ",
"         ...@@@OOO++++++++++++OOO$$$...         ",
"         ...@@@OOO++++++++++++OOO$$$...         ",
"         ...@@@OOO++++++++++++OOO$$$...         ",
"            ...ooo######$$$$$$+++...            ",
"            ...ooo######$$$$$$+++...            ",
"            ...ooo######$$$$$$+++...            ",
"               ..................               ",
"               ..................               ",
"               ..................               ",
"                                                ",
"                                                ",
"                                                "
};
