/* XPM */
static char *_ac704a9408b4e53c30e21358a19b053YywpND8Jq9HkqHqf[] = {
/* columns rows colors chars-per-pixel */
"48 48 82 1 ",
"  c #37009D",
". c #36009E",
"X c #3700A3",
"o c #3800A2",
"O c #3800A5",
"+ c #3A00A6",
"@ c #3900A8",
"# c #3A00A9",
"$ c #3C00AB",
"% c #3C00AC",
"& c #3E00AF",
"* c #3F00B1",
"= c #4000B1",
"- c #4301B4",
"; c #4501B4",
": c #4701B6",
"> c #4801B8",
", c #4A01B8",
"< c #4A01BA",
"1 c #4D02BC",
"2 c #4E02BC",
"3 c #4F02BE",
"4 c #5004BE",
"5 c #5104BE",
"6 c #5203C0",
"7 c #5506C2",
"8 c #5706C2",
"9 c #5806C4",
"0 c #5A07C4",
"q c #5B07C6",
"w c #5C09C6",
"e c #5D0AC6",
"r c #600BC8",
"t c #610BC8",
"y c #620CC9",
"u c #630CC9",
"i c #640CCB",
"p c #640DCB",
"a c #650DCB",
"s c #660FCB",
"d c #6810CD",
"f c #6A11CD",
"g c #6B11CD",
"h c #6B12CD",
"j c #6D12CE",
"k c #6E13CE",
"l c #6F13D0",
"z c #6F14D0",
"x c #7014D0",
"c c #7114D0",
"v c #7215D0",
"b c #7217D0",
"n c #7317D2",
"m c #7418D2",
"M c #761AD3",
"N c #791BD3",
"B c #7A1CD5",
"V c #7B1CD5",
"C c #7B1DD5",
"Z c #7B1ED6",
"A c #7D1ED6",
"S c #7E21D6",
"D c #8123D8",
"F c #8324D8",
"G c #8224D9",
"H c #8426D9",
"J c #8527D9",
"K c #8627D9",
"L c #8628D9",
"P c #872AD9",
"I c #892BDA",
"U c #8A2CDA",
"Y c #8A2DDA",
"T c #9032DD",
"R c #9033DD",
"E c #973AE0",
"W c #973BE0",
"Q c #9A3EE1",
"! c #9B41E1",
"~ c #9C42E1",
"^ c #9D43E1",
"/ c #A54FE5",
/* pixels */
"<<<fffvvviiiept;:::<<ppa445$=$arrFDD445ooo&#$950",
"<<<fffvvvsiipet<::<:;srr445$$$urrDDD555Ooo$$$555",
"<<<fffvvviiswpt;:;:<:spa455$$$rruDDD555oXX#&$594",
"~~~LLLaasUUUbbbOOO##O414===ooo554,:2===:;<<22949",
"~~~LLLaapUUUvMM+O++$O515==*XoO542;1:===<<:151784",
"~~~LLLaaiYUUMvMO++O$$555=**Xoo4442:<===;;<112866",
"BBBfff!!!sfs*==oOO959NMMNNB878aaychf===oOX15<lll",
"BBBfff!!!fsf===OO+595mMMNNv778aapfvv==* O 514lll",
"BBBfff!!!ffd===oOO755MBvNMM988pppfhk==*XXX611xvh",
"111appfff$&#OOo007UUUsssccv:;<880^^^isa&&&XXOeee",
"111aaahhf&#&OOO788UUUfsscbc<>>887^~~iii&#&XXXeee",
"111paahff#&#OOO788UUUsssccc:>>887^^!iii*&&XXXeee",
"###142ooXoooaapJLFptyOOO==;=**OOO888AASapa&#&oOO",
"###122oooooopppLJGtpsOOO;===**OOO888AAAaaa&&&OOO",
"###122oooooopksPFJuusOOO=====*OOO988AABppa&#&OOO",
"&&*;;;$$$tttRRRsysOoOoooOoO;<<OOO   558LLLvvbOOO",
"=&*;;;#*#tpeQQRpyyOOOOoOOOO<:<OOO   635LLLbbbXOO",
"&=&;;;$#$ttpWRQayy++OOoOOOo4<:++o   535LLLbbbXOO",
"BABpaa445UUUvvv###$##::<;:4466eee*&=OOO705ULP000",
"BBBpaa445UUUvvvoO#O##:<:1::465qee&=&OOO555ULP000",
"ABBasy451UUUccco##O##::<;22464qqe=&=OXX875PPP000",
"eee:::===eew255&&&:::&&$hggraychhfff######<<<788",
"eee:::==*qwe111&&$:::&&&chharrhccfff####O#<<<708",
"eee::;===qyq111&&&:::&&$hchrrrfcffff###O##<<<088",
"vvl516--=qqq223<;<--:ooocccUUUQQQ848==&###ddfepe",
"zvv161--;qqq<23:<<--=ooocccUUUQQQ484&&&OOXddfpei",
"vvv561--*eww111<<<--;ooocccUUUQQQ464$&&o@@dddrie",
"q8q*-*815FGGABB=&&O&$<<<555MmMhhccmxeqe:>;888555",
"00q;--513JGSBSS&*&$##<<<855mmmhcxxxxeqe<;<877161",
"09q=*-453JJFSBB&&=#$#<<<485mmmhhhvxxqqe;>;779617",
":;;*&* X 11<LGGPUL2222<2ggcrurEE~UJJ;*=O#O;;>*-*",
";;;&*&  X11<GLLLLL222:22chgrriQERKKJ==*OXO;>>-*-",
";->***   122GGLLLU12222<fggtpeQR!JJJ*==OOO;::*--",
"q9qhvl***###08wWQERRR558apaRRRSSD;<;XXO222PLU878",
"998zvv==*##&998WQERRR585uutRRRSSS;;:XXO<22LLL777",
"98ezvb===*&#999W~RRRR858utaRRRSSS:::XXO22<ULL777",
"835UUUGGJ;;;%##<3;UYUzlvcckLJJ<<<Ooo252JHKTRR173",
"387UUUGGD;;;#&&;:<YYUvvvchcLJJ<<<XoX525JKFTRR717",
"750UUUGGD;;;$$$11;UUUvxlckkLGL<<<XXX223LHKRRR666",
":<;<<<UUUDDJ===   311161880*=;OXX122BNBLYL;-;&**",
"<<<<<<UUUFFF=;=   111516889==-OoO111NNMUYL;;;%**",
";<;<<<UUUFFF===   114161888;-=oOO11<NBBUYY;;>**%",
":::;;-eee///ANA=**#&$516224OOO::;JJDhxz*;*OXO-*-",
"::;---eee///BAB==&&#&151<21OO$::;JGJxxl---OOO-*-",
":;::=;eee///BAN=&=$&&525222OOO::;GGJvlz-==ooX*;=",
" X 594eyysfshhh585522BBAfdd311Mhvnnn==*O#O==*&==",
"   819yyyssfhhh599545BBBddd251vvvnnn===+O+=;=***",
".X 5q1yeydffhfc566125BBBddd211vzvnnn===+++===***"
};
