/* XPM */
static char *f378fbe950ba492cfae38a30083726a16qjxw5jMZPzQACaa[] = {
/* columns rows colors chars-per-pixel */
"48 48 16 1 ",
"  c #593D29",
". c #79553A",
"X c #745844",
"o c #6C6C6C",
"O c #966C4A",
"+ c #B9855C",
"@ c gray53",
"# c black",
"$ c black",
"% c black",
"& c black",
"* c black",
"= c black",
"- c black",
"; c black",
": c black",
/* pixels */
"+++OOOOOO......+++OOOOOO......   ......+++...+++",
"+++OOOOOO......+++OOOOOO......   ......+++...+++",
"+++OOOOOO......+++OOOOOO......   ......+++...+++",
"...OOO   ......OOO@@@   ...+++OOO...+++OOO      ",
"...OOO   ......OOO@@@   ...+++OOO...+++OOO      ",
"...OOO   ......OOO@@@   ...+++OOO...+++OOO      ",
"+++......   +++.........+++.........      +++...",
"+++......   +++.........+++.........      +++...",
"+++......   +++.........+++.........      +++...",
"OOOooo+++...OOO   ...+++OOOOOO...OOO...+++OOO...",
"OOOooo+++...OOO   ...+++OOOOOO...OOO...+++OOO...",
"OOOooo+++...OOO   ...+++OOOOOO...OOO...+++OOO...",
"OOO...OOO+++   OOO......OOO   ...ooo...OOO   ...",
"OOO...OOO+++   OOO......OOO   ...ooo...OOO   ...",
"OOO...OOO+++   OOO......OOO   ...ooo...OOO   ...",
"...   OOOOOO...OOO         ......   .........+++",
"...   OOOOOO...OOO         ......   .........+++",
"...   OOOOOO...OOO         ......   .........+++",
"+++.........@@@......++++++...++++++...OOO...OOO",
"+++.........@@@......++++++...++++++...OOO...OOO",
"+++.........@@@......++++++...++++++...OOO...OOO",
"......++++++OOOOOO......OOO   OOOOOO......OOOOOO",
"......++++++OOOOOO......OOO   OOOOOO......OOOOOO",
"......++++++OOOOOO......OOO   OOOOOO......OOOOOO",
"OOO......OOO...OOO...   ...OOOOOO.........   ...",
"OOO......OOO...OOO...   ...OOOOOO.........   ...",
"OOO......OOO...OOO...   ...OOOOOO.........   ...",
"...OOO   ......      ...............++++++...OOO",
"...OOO   ......      ...............++++++...OOO",
"...OOO   ......      ...............++++++...OOO",
"...OOO...++++++...+++OOO   ++++++   OOOOOO@@@...",
"...OOO...++++++...+++OOO   ++++++   OOOOOO@@@...",
"...OOO...++++++...+++OOO   ++++++   OOOOOO@@@...",
"OOO......OOOOOO+++...OOOoooOOOOOO...   OOO...   ",
"OOO......OOOOOO+++...OOOoooOOOOOO...   OOO...   ",
"OOO......OOOOOO+++...OOOoooOOOOOO...   OOO...   ",
"...   OOO...OOOOOO+++.....................++++++",
"...   OOO...OOOOOO+++.....................++++++",
"...   OOO...OOOOOO+++.....................++++++",
"...OOO......XXX...OOOOOO...   +++   ...+++OOOOOO",
"...OOO......XXX...OOOOOO...   +++   ...+++OOOOOO",
"...OOO......XXX...OOOOOO...   +++   ...+++OOOOOO",
"OOO...   +++...   ...   ++++++...OOO......OOOOOO",
"OOO...   +++...   ...   ++++++...OOO......OOOOOO",
"OOO...   +++...   ...   ++++++...OOO......OOOOOO",
"OOO...+++OOOOOO...@@@...OOOOOO......OOOOOO...   ",
"OOO...+++OOOOOO...@@@...OOOOOO......OOOOOO...   ",
"OOO...+++OOOOOO...@@@...OOOOOO......OOOOOO...   "
};
