/* XPM */
static char *d6b8eaf112f14ceab8d8107597e3d647ZXVUdhbeLCaRNysN[] = {
/* columns rows colors chars-per-pixel */
"48 48 12 1 ",
"  c #FFFFFF",
". c #181818",
"X c #281E0B",
"o c #493615",
"O c #684E1E",
"+ c #444444",
"@ c gray42",
"# c #896727",
"$ c gray59",
"% c gray",
"& c #D8D8D8",
"* c white",
/* pixels */
"                                       +++++++++",
"                                       +++++++++",
"                                       +++++++++",
"                                    +++******...",
"                                    +++******...",
"                                    +++******...",
"                                 +++***%%%***...",
"                                 +++***%%%***...",
"                                 +++***%%%***...",
"                              +++***%%%***...   ",
"                              +++***%%%***...   ",
"                              +++***%%%***...   ",
"                           +++***%%%&&&...      ",
"                           +++***%%%&&&...      ",
"                           +++***%%%&&&...      ",
"                        +++***%%%&&&...         ",
"                        +++***%%%&&&...         ",
"                        +++***%%%&&&...         ",
"      ++++++         +++&&&%%%&&&...            ",
"      ++++++         +++&&&%%%&&&...            ",
"      ++++++         +++&&&%%%&&&...            ",
"      +++@@@+++   +++&&&%%%&&&...               ",
"      +++@@@+++   +++&&&%%%&&&...               ",
"      +++@@@+++   +++&&&%%%&&&...               ",
"         +++$$$...&&&$$$&&&...                  ",
"         +++$$$...&&&$$$&&&...                  ",
"         +++$$$...&&&$$$&&&...                  ",
"         +++$$$$$$@@@&&&...                     ",
"         +++$$$$$$@@@&&&...                     ",
"         +++$$$$$$@@@&&&...                     ",
"            +++@@@+++...                        ",
"            +++@@@+++...                        ",
"            +++@@@+++...                        ",
"         oooOOO...++++++...                     ",
"         oooOOO...++++++...                     ",
"         oooOOO...++++++...                     ",
"      ooo###XXX   ......+++...                  ",
"      ooo###XXX   ......+++...                  ",
"      ooo###XXX   ......+++...                  ",
"++++++OOOXXX            ......                  ",
"++++++OOOXXX            ......                  ",
"++++++OOOXXX            ......                  ",
"+++@@@...                                       ",
"+++@@@...                                       ",
"+++@@@...                                       ",
".........                                       ",
".........                                       ",
".........                                       "
};
