/* XPM */
static char *_5043a17a8804573acb61bcaba0b1f9duLE8XeGyRHOQIcy9[] = {
/* columns rows colors chars-per-pixel */
"48 48 16 1 ",
"  c #686868",
". c #747474",
"X c gray50",
"o c gray56",
"O c black",
"+ c black",
"@ c black",
"# c black",
"$ c black",
"% c black",
"& c black",
"* c black",
"= c black",
"- c black",
"; c black",
": c black",
/* pixels */
"ooooooooooooXXX......XXX...   ......XXXXXXXXXXXX",
"ooooooooooooXXX......XXX...   ......XXXXXXXXXXXX",
"ooooooooooooXXX......XXX...   ......XXXXXXXXXXXX",
"XXXXXX...XXX...XXXXXXXXXXXXXXXXXX      ...XXX...",
"XXXXXX...XXX...XXXXXXXXXXXXXXXXXX      ...XXX...",
"XXXXXX...XXX...XXXXXXXXXXXXXXXXXX      ...XXX...",
"XXX...      .........   .........XXXXXXXXXXXXXXX",
"XXX...      .........   .........XXXXXXXXXXXXXXX",
"XXX...      .........   .........XXXXXXXXXXXXXXX",
"XXXXXXooooooXXXoooXXXXXXooooooXXXXXXXXX.........",
"XXXXXXooooooXXXoooXXXXXXooooooXXXXXXXXX.........",
"XXXXXXooooooXXXoooXXXXXXooooooXXXXXXXXX.........",
"...XXXXXX.........XXX...XXXoooooooooooo...XXXXXX",
"...XXXXXX.........XXX...XXXoooooooooooo...XXXXXX",
"...XXXXXX.........XXX...XXXoooooooooooo...XXXXXX",
"XXXoooXXXXXXXXXXXXXXXXXXXXX......   ...   ...ooo",
"XXXoooXXXXXXXXXXXXXXXXXXXXX......   ...   ...ooo",
"XXXoooXXXXXXXXXXXXXXXXXXXXX......   ...   ...ooo",
"...XXXXXXooooooooo...oooooo.........XXXXXXXXXXXX",
"...XXXXXXooooooooo...oooooo.........XXXXXXXXXXXX",
"...XXXXXXooooooooo...oooooo.........XXXXXXXXXXXX",
"......      ...   ......XXXXXX.........XXXXXXXXX",
"......      ...   ......XXXXXX.........XXXXXXXXX",
"......      ...   ......XXXXXX.........XXXXXXXXX",
"oooooooooXXXoooXXXXXXoooooooooXXXXXXXXXXXXXXX...",
"oooooooooXXXoooXXXXXXoooooooooXXXXXXXXXXXXXXX...",
"oooooooooXXXoooXXXXXXoooooooooXXXXXXXXXXXXXXX...",
"XXXXXXoooXXXXXXXXXoooooooooXXXXXXooooooooooooXXX",
"XXXXXXoooXXXXXXXXXoooooooooXXXXXXooooooooooooXXX",
"XXXXXXoooXXXXXXXXXoooooooooXXXXXXooooooooooooXXX",
"   XXX...XXX......      ...XXX...XXXXXX.........",
"   XXX...XXX......      ...XXX...XXXXXX.........",
"   XXX...XXX......      ...XXX...XXXXXX.........",
"XXXXXXXXXXXXXXXooooooXXXXXXXXXXXXXXXooooooXXXooo",
"XXXXXXXXXXXXXXXooooooXXXXXXXXXXXXXXXooooooXXXooo",
"XXXXXXXXXXXXXXXooooooXXXXXXXXXXXXXXXooooooXXXooo",
"XXX.........XXXoooXXX......XXXXXX      ...   ...",
"XXX.........XXXoooXXX......XXXXXX      ...   ...",
"XXX.........XXXoooXXX......XXXXXX      ...   ...",
"ooooooXXX......XXXXXX.........XXXXXX.........ooo",
"ooooooXXX......XXXXXX.........XXXXXX.........ooo",
"ooooooXXX......XXXXXX.........XXXXXX.........ooo",
"XXX......XXXXXXXXXXXXXXXXXXXXXXXXXXXoooooooooooo",
"XXX......XXXXXXXXXXXXXXXXXXXXXXXXXXXoooooooooooo",
"XXX......XXXXXXXXXXXXXXXXXXXXXXXXXXXoooooooooooo",
"XXXXXXXXXXXXXXXXXX......XXXooooooXXXXXX...XXXXXX",
"XXXXXXXXXXXXXXXXXX......XXXooooooXXXXXX...XXXXXX",
"XXXXXXXXXXXXXXXXXX......XXXooooooXXXXXX...XXXXXX"
};
